<svg width="18" height="25" viewBox="0 0 18 25" fill="none" xmlns="http://www.w3.org/2000/svg">
<path d="M9.9388 24.1409C10.4205 21.0263 10.9986 14.0659 9.45708 11.1409" stroke="white"/>
<circle cx="6.3812" cy="6.64093" r="2.5" stroke="white"/>
<path d="M8.8812 24.1409C8.8812 22.3076 8.1812 18.2409 5.3812 16.6409M9.8812 24.1409C10.2145 21.9743 12.1812 17.0409 17.3812 14.6409" stroke="white"/>
<path d="M8.8812 24.1409H9.8812H10.3812H8.3812" stroke="white"/>
<path d="M4.3812 5.14093C4.3812 5.0692 4.37893 4.9942 4.37411 4.91688M4.37411 4.91688C4.30062 3.73647 3.63365 2.0147 1.3812 3.14093C-1.0188 4.34093 2.04786 5.97426 3.8812 6.64092C2.3812 6.80759 -0.318805 7.54093 0.881195 9.14093C2.0812 10.7409 3.71453 9.47426 4.3812 8.64093C3.8812 9.30759 3.2812 10.8409 4.8812 11.6409C6.4812 12.4409 6.54786 10.3076 6.3812 9.14093C6.71453 10.4743 7.8812 12.7409 9.8812 11.1409C11.8812 9.54093 9.71453 8.47426 8.3812 8.14092C9.54786 8.47426 11.8812 8.64092 11.8812 6.64092C11.8812 4.64092 9.54786 5.14092 8.3812 5.64092C9.71453 4.80759 11.7812 2.84093 9.3812 1.64093C6.98119 0.440925 6.71453 2.80759 6.8812 4.14093C7.04786 2.64093 6.8812 -0.159072 4.8812 0.640927C2.8812 1.44093 3.70981 3.8249 4.37411 4.91688Z" stroke="white"/>
</svg>
