<svg width="21" height="23" viewBox="0 0 21 23" fill="none" xmlns="http://www.w3.org/2000/svg">
<path d="M17.2576 4C15.0909 3 9.55757 2.3 4.75757 7.5C-0.042433 12.7 0.757567 19.3333 1.75757 22C4.92423 22 12.0576 20.7 15.2576 15.5C18.4576 10.3 17.9242 5.66667 17.2576 4ZM17.2576 4C17.5909 3 18.7576 1 20.7576 1" stroke="white" stroke-width="2"/>
<path d="M5.98062 17.1338C6.05713 16.7538 6.45046 15.1911 7.90684 13.0402M13.5324 7.27368C12.3494 8.17642 11.349 9.06478 10.5035 9.91669M3.91334 15.7279C4.27569 14.7101 5.58168 12.7475 7.90684 13.0402M7.90684 13.0402C8.38039 12.3408 8.96634 11.5792 9.69034 10.7759M6.17925 10.6176C6.73126 10.2583 8.36892 9.61516 10.5035 9.91669M10.5035 9.91669C10.2148 10.2076 9.94408 10.4943 9.69034 10.7759M9.90691 15.4502C10.1881 14.3164 10.5384 11.7942 9.69034 10.7759" stroke="white"/>
</svg>
