<svg width="15" height="24" viewBox="0 0 15 24" fill="none" xmlns="http://www.w3.org/2000/svg">
<rect x="5" y="19.9998" width="5" height="3" stroke="white"/>
<path d="M5.63281 0.198991C6.39252 -0.0290102 7.38671 -0.0214536 8.14258 0.0290695C8.52988 0.054969 8.87335 0.0934661 9.12012 0.125749C9.24362 0.141907 9.34356 0.1561 9.41309 0.166765C9.44784 0.172097 9.47528 0.176384 9.49414 0.17946C9.50331 0.180957 9.5105 0.182508 9.51562 0.183366C9.51819 0.183795 9.521 0.184095 9.52246 0.184343V0.18532L9.58301 0.194109L9.58496 0.195085C10.5332 0.353738 11.7106 0.986095 12.6738 1.82594C13.6484 2.67576 14.6244 3.92961 14.8662 5.48512C15.2664 8.06208 14.8624 10.8179 12.3477 13.1306C11.5064 13.9042 11.0808 14.81 10.8652 15.5369C10.7576 15.8999 10.7043 16.2106 10.6787 16.4226C10.6659 16.5285 10.6599 16.6091 10.6572 16.657C10.6561 16.6767 10.6557 16.6891 10.6553 16.7039V17.9998H4.57812V16.699C4.57812 15.3566 3.85803 14.5992 2.62988 13.2527C1.4805 11.9925 0.0898795 10.3632 0.00390625 7.58083L0 7.30739C0.000178915 2.54829 3.76565 0.593211 5.5957 0.204851L5.59668 0.209734C5.60848 0.206195 5.62058 0.202663 5.63281 0.198991ZM7.8291 5.01442C7.58679 5.05206 7.45863 5.23046 7.41895 5.28884C7.36371 5.37013 7.32159 5.46259 7.28906 5.54372C7.22234 5.71027 7.15254 5.93814 7.07715 6.2029C6.90941 6.79204 6.83092 7.29643 6.80762 7.71755C6.54843 8.07626 6.3911 8.24905 6.24805 8.33278C6.06582 8.43927 5.88616 8.51015 5.7373 8.53884C5.5846 8.56825 5.51477 8.54475 5.49512 8.53395C5.45188 8.50943 5.35244 8.44191 5.28027 8.30153C5.26616 8.27401 5.24971 8.23154 5.23926 8.17555C5.25946 8.14969 5.28111 8.12414 5.30176 8.09743C5.74743 7.52057 6.03225 6.72866 6.25 6.06911C6.29571 5.93065 6.33826 5.75185 6.30176 5.57106C6.28074 5.4673 6.23381 5.36452 6.15527 5.27809C6.11786 5.23702 6.07884 5.20484 6.04199 5.18044L5.94238 5.12673L5.81055 5.0818C5.50736 5.00349 5.24655 5.11067 5.15137 5.15212C4.97088 5.23081 4.87734 5.38474 4.8457 5.43825C4.79914 5.51703 4.76101 5.60596 4.72949 5.68923C4.66546 5.85847 4.60449 6.07195 4.54883 6.29567C4.43653 6.74712 4.33114 7.2989 4.25391 7.76149C4.25086 7.77977 4.24856 7.79819 4.24609 7.81618C3.94855 8.181 3.72405 8.42164 3.56348 8.57301C3.46104 8.66955 3.38973 8.72615 3.34766 8.75563C3.33779 8.76253 3.32966 8.76688 3.32422 8.77028C3.10059 8.85417 2.96266 9.08828 3.00879 9.33083C3.06068 9.60193 3.3226 9.78004 3.59375 9.72829C3.73102 9.70207 3.85188 9.62304 3.92188 9.57399C4.01402 9.50938 4.12331 9.41997 4.25 9.30055C4.33729 9.21826 4.43347 9.11755 4.54297 8.99977C4.70475 9.21216 4.88481 9.33716 5.00098 9.40309C5.30404 9.57493 5.64427 9.57568 5.92676 9.52126C6.21474 9.46574 6.50043 9.34304 6.75195 9.19606C6.82602 9.15277 6.89558 9.10096 6.96387 9.04567C6.99739 9.13222 7.03445 9.20665 7.07422 9.26735C7.31823 9.63913 7.75466 9.68298 8 9.68044C8.28309 9.67745 8.57658 9.61155 8.79395 9.54567C8.94848 9.49883 9.0759 9.40422 9.16406 9.32985C9.26055 9.24841 9.35826 9.14839 9.45312 9.04469C9.4582 9.03915 9.46267 9.03276 9.46777 9.02712C9.48066 9.05118 9.49357 9.07552 9.50781 9.09841L9.50977 9.10231C9.61622 9.26971 9.74467 9.43552 9.88672 9.58864V9.58766C9.95176 9.65794 10.0228 9.73599 10.1553 9.86208C10.3553 10.0523 10.672 10.0444 10.8623 9.8445C11.0526 9.64448 11.0447 9.32783 10.8447 9.13747C10.7349 9.03302 10.6799 8.97358 10.6201 8.90895V8.90798L10.4756 8.73805C10.4321 8.682 10.392 8.62562 10.3564 8.57009C10.3442 8.55034 10.3364 8.53469 10.3311 8.50759C10.3246 8.47468 10.3177 8.40498 10.335 8.27712C10.3545 8.13301 10.3769 7.99812 10.3955 7.87184C10.7568 7.29488 10.8505 6.77716 10.8672 6.39137L10.8701 6.19997L10.8633 6.11696C10.847 6.01682 10.796 5.87319 10.6475 5.76833C10.4546 5.6325 10.2568 5.67541 10.1846 5.69801C10.0369 5.74431 9.93578 5.84264 9.88281 5.90895C9.79327 6.02112 9.73712 6.15989 9.69824 6.27419C9.6555 6.39989 9.61588 6.55158 9.57812 6.72438C9.53207 6.93524 9.48713 7.19252 9.43945 7.49684C9.40265 7.54737 9.36558 7.60102 9.32227 7.65309C9.07958 7.94489 8.88289 8.18723 8.71582 8.36989C8.63328 8.46012 8.56846 8.52388 8.51953 8.5652C8.50207 8.57993 8.48884 8.58834 8.48145 8.59352C8.3171 8.64173 8.13544 8.67884 7.99023 8.68044C7.94795 8.68088 7.91595 8.67785 7.89355 8.67458C7.88577 8.65346 7.8753 8.62462 7.86523 8.58669C7.83936 8.48899 7.81362 8.34648 7.80371 8.15798C7.80178 8.12106 7.80337 8.08214 7.80273 8.04176C8.59179 6.877 8.71077 6.08545 8.70117 5.61501C8.69777 5.45196 8.63327 5.29412 8.50781 5.17751C8.39673 5.07441 8.27139 5.03523 8.19141 5.01833C8.11453 5.00209 8.03933 4.99876 7.97559 5.00075L7.8291 5.01442Z" fill="white"/>
</svg>
