<svg width="23" height="23" viewBox="0 0 23 23" fill="none" xmlns="http://www.w3.org/2000/svg">
<rect x="10" width="2" height="23" rx="1" fill="white"/>
<rect x="8" y="1.70711" width="1" height="3.87075" rx="0.5" transform="rotate(-45 8 1.70711)" fill="white"/>
<rect x="10.737" y="19" width="1" height="3.87075" rx="0.5" transform="rotate(45 10.737 19)" fill="white"/>
<rect x="13.3514" y="1.00688" width="0.990103" height="3.59322" rx="0.495052" transform="rotate(45 13.3514 1.00688)" fill="white"/>
<rect x="10.8106" y="19.707" width="0.990103" height="3.59322" rx="0.495052" transform="rotate(-45 10.8106 19.707)" fill="white"/>
<rect x="1" y="6.50873" width="2" height="23" rx="1" transform="rotate(-60 1 6.50873)" fill="white"/>
<rect x="1.4784" y="9.09434" width="1" height="3.87075" rx="0.5" transform="rotate(-105 1.4784 9.09434)" fill="white"/>
<rect x="17.823" y="15.3704" width="1" height="3.87075" rx="0.5" transform="rotate(-15 17.823 15.3704)" fill="white"/>
<rect x="3.5477" y="4.10975" width="0.990103" height="3.59322" rx="0.495052" transform="rotate(-15 3.5477 4.10975)" fill="white"/>
<rect x="18.4721" y="15.6602" width="0.990103" height="3.59322" rx="0.495052" transform="rotate(-105 18.4721 15.6602)" fill="white"/>
<rect x="20.9186" y="4.73205" width="2" height="23" rx="1" transform="rotate(60 20.9186 4.73205)" fill="white"/>
<rect x="18.4402" y="3.85355" width="1" height="3.87075" rx="0.5" transform="rotate(15 18.4402 3.85355)" fill="white"/>
<rect x="4.83262" y="14.8703" width="1" height="3.87075" rx="0.5" transform="rotate(105 4.83262 14.8703)" fill="white"/>
<rect x="21.7223" y="8.13791" width="0.990103" height="3.59322" rx="0.495052" transform="rotate(105 21.7223 8.13791)" fill="white"/>
<rect x="4.25715" y="15.2876" width="0.990103" height="3.59322" rx="0.495052" transform="rotate(15 4.25715 15.2876)" fill="white"/>
</svg>
