<svg width="20" height="20" viewBox="0 0 20 20" fill="none" xmlns="http://www.w3.org/2000/svg">
<mask id="mask0_2_480" style="mask-type:alpha" maskUnits="userSpaceOnUse" x="1" y="1" width="18" height="18">
<circle cx="10" cy="10" r="4" fill="white"/>
<rect x="9" y="1" width="2" height="4" rx="1" fill="white"/>
<rect x="4.34904" y="17.0758" width="2" height="4" rx="1" transform="rotate(-135.048 4.34904 17.0758)" fill="white"/>
<rect x="9" y="15" width="2" height="4" rx="1" fill="white"/>
<rect x="14.2403" y="7.16804" width="2" height="4" rx="1" transform="rotate(-135.048 14.2403 7.16804)" fill="white"/>
<rect x="15" y="11" width="2" height="4" rx="1" transform="rotate(-90 15 11)" fill="white"/>
<rect x="12.8321" y="14.2402" width="2" height="4" rx="1" transform="rotate(-45.0496 12.8321 14.2402)" fill="white"/>
<rect x="1" y="11" width="2" height="4" rx="1" transform="rotate(-90 1 11)" fill="white"/>
<rect x="2.92403" y="4.34927" width="2" height="4" rx="1" transform="rotate(-45.0496 2.92403 4.34927)" fill="white"/>
</mask>
<g mask="url(#mask0_2_480)">
<rect x="1" y="1" width="18" height="9" fill="white"/>
</g>
<rect x="1" y="9" width="18" height="2" rx="1" fill="white"/>
<rect x="4" y="12" width="12" height="2" rx="1" fill="white"/>
<rect x="7" y="15" width="6" height="2" rx="1" fill="white"/>
</svg>
