<svg width="20" height="20" viewBox="0 0 20 20" fill="none" xmlns="http://www.w3.org/2000/svg">
<rect x="3.78955" y="11.7" width="8.6216" height="2" rx="1" transform="rotate(23.252 3.78955 11.7)" fill="white"/>
<rect x="3.78955" y="8.7" width="8.6216" height="2" rx="1" transform="rotate(23.252 3.78955 8.7)" fill="white"/>
<rect x="3.78955" y="5.7" width="8.6216" height="2" rx="1" transform="rotate(23.252 3.78955 5.7)" fill="white"/>
<rect x="10.1395" y="3.1" width="8.6216" height="2" rx="1" transform="rotate(23.252 10.1395 3.1)" fill="white"/>
<rect x="9.2" y="15.1555" width="8.74303" height="2" rx="1" transform="rotate(-23.28 9.2 15.1555)" fill="white"/>
<rect x="9.2" y="12.1555" width="8.74303" height="2" rx="1" transform="rotate(-23.28 9.2 12.1555)" fill="white"/>
<rect x="9.2" y="9.15546" width="8.74303" height="2" rx="1" transform="rotate(-23.28 9.2 9.15546)" fill="white"/>
<rect x="3" y="6.45546" width="8.74303" height="2" rx="1" transform="rotate(-23.28 3 6.45546)" fill="white"/>
<path d="M10 4.7L6 7.2L10.5 9.7L15.5 6.7L10 4.7Z" fill="white"/>
</svg>
