<svg width="20" height="20" viewBox="0 0 20 20" fill="none" xmlns="http://www.w3.org/2000/svg">
<path d="M14.5 3C14.7761 3 15 3.22386 15 3.5V15.5C15 15.7761 14.7761 16 14.5 16H6.5C6.22386 16 6 15.7761 6 15.5V3.5C6 3.22386 6.22386 3 6.5 3H14.5ZM7.31836 8C7.04222 8 6.81836 8.22386 6.81836 8.5C6.81836 8.77614 7.04222 9 7.31836 9H13.6816C13.9578 9 14.1816 8.77614 14.1816 8.5C14.1816 8.22386 13.9578 8 13.6816 8H7.31836ZM7.31836 6C7.04222 6 6.81836 6.22386 6.81836 6.5C6.81836 6.77614 7.04222 7 7.31836 7H13.6816C13.9578 7 14.1816 6.77614 14.1816 6.5C14.1816 6.22386 13.9578 6 13.6816 6H7.31836ZM7.31836 4C7.04222 4 6.81836 4.22386 6.81836 4.5C6.81836 4.77614 7.04222 5 7.31836 5H13.6816C13.9578 5 14.1816 4.77614 14.1816 4.5C14.1816 4.22386 13.9578 4 13.6816 4H7.31836Z" fill="white"/>
<rect x="4" y="5" width="1" height="9" rx="0.5" fill="white"/>
<rect x="4" y="5" width="1" height="1" fill="white"/>
<path d="M4.5 4L4 5H5L4.5 4Z" fill="white"/>
</svg>
