<svg width="20" height="20" viewBox="0 0 20 20" fill="none" xmlns="http://www.w3.org/2000/svg">
<path d="M5 12C5 11.4477 5.44772 11 6 11H13C13.5523 11 14 11.4477 14 12V14C14 14.5523 13.5523 15 13 15H6C5.44772 15 5 14.5523 5 14V12Z" fill="white"/>
<path d="M6 14C6 13.4477 6.44772 13 7 13H12C12.5523 13 13 13.4477 13 14V18C13 18.5523 12.5523 19 12 19H7C6.44772 19 6 18.5523 6 18V14Z" fill="white"/>
<rect x="4" y="11" width="11" height="2" rx="1" fill="white"/>
<rect x="9" y="16" width="12" height="1" rx="0.5" transform="rotate(-90 9 16)" fill="white"/>
<ellipse cx="7" cy="8" rx="2" ry="1" fill="white"/>
<ellipse cx="12" cy="9" rx="2" ry="1" fill="white"/>
<circle cx="10" cy="5" r="1" fill="white"/>
<circle cx="11" cy="4" r="1" fill="white"/>
<circle cx="11" cy="3" r="1" fill="white"/>
<circle cx="10" cy="2" r="1" fill="white"/>
<circle cx="9" cy="2" r="1" fill="white"/>
<circle cx="8" cy="3" r="1" fill="white"/>
<circle cx="8" cy="4" r="1" fill="white"/>
<circle cx="9" cy="5" r="1" fill="white"/>
<circle cx="9.5" cy="3.5" r="1.5" fill="white"/>
</svg>
