<svg width="20" height="20" viewBox="0 0 20 20" fill="none" xmlns="http://www.w3.org/2000/svg">
<path d="M9.4807 2.46665C6.7294 2.70096 4.38462 4.20908 4.30692 6.52709C4.33815 7.39646 5.83202 6.7592 5.83202 6.7592C5.83202 6.7592 6.58351 3.79933 10.1013 3.86173C10.1013 3.86173 12.6457 4.27915 13.2739 5.76345C13.9021 7.24775 10.0928 9.65419 10.0928 9.65419C7.25662 11.7056 8.90414 13.3753 9.86987 12.931C10.8356 12.4868 10.0712 12.2761 10.2764 11.8105C10.5567 11.1747 11.1807 10.6475 11.1807 10.6475C11.1807 10.6475 13.0731 9.29684 14.0167 8.59606C14.9604 7.89529 15.389 7.03126 15.2664 5.59377C15.1437 4.15628 12.232 2.23235 9.4807 2.46665Z" fill="white"/>
<circle cx="9.5" cy="15.5" r="1.5" fill="white"/>
</svg>
