<svg width="20" height="20" viewBox="0 0 20 20" fill="none" xmlns="http://www.w3.org/2000/svg">
<rect x="5" y="14" width="11" height="4" fill="white"/>
<rect x="5.00169" y="12.2973" width="4.01039" height="1.77713" rx="0.888566" transform="rotate(14.8247 5.00169 12.2973)" fill="white"/>
<rect x="6.34336" y="11.959" width="2.00893" height="1.17294" rx="0.586469" transform="rotate(17.759 6.34336 11.959)" fill="white"/>
<rect x="7.94738" y="12.9151" width="0.695761" height="0.363555" rx="0.181777" transform="rotate(17.759 7.94738 12.9151)" fill="white"/>
<rect x="8.26156" y="12.7453" width="7.78969" height="1.71639" rx="0.858196" transform="rotate(2.52959 8.26156 12.7453)" fill="white"/>
<rect x="3" y="13" width="1" height="6" rx="0.5" fill="white"/>
<rect x="17" y="13" width="1" height="6" rx="0.5" fill="white"/>
<rect x="9" y="8" width="3" height="1" rx="0.5" fill="white"/>
<rect x="13.121" y="5.18987" width="3" height="1" rx="0.5" fill="white"/>
<rect x="9.00341" y="10.187" width="3" height="0.852945" rx="0.426472" transform="rotate(0.240615 9.00341 10.187)" fill="white"/>
<rect x="13.1244" y="7.37691" width="3" height="0.852945" rx="0.426472" transform="rotate(0.240615 13.1244 7.37691)" fill="white"/>
<rect x="9.1244" y="4.37691" width="3" height="0.852945" rx="0.426472" transform="rotate(0.240615 9.1244 4.37691)" fill="white"/>
<rect x="8.87901" y="10.5706" width="3.90385" height="0.930122" rx="0.465061" transform="rotate(-45 8.87901 10.5706)" fill="white"/>
<rect x="13" y="7.76044" width="3.90385" height="0.930122" rx="0.465061" transform="rotate(-45 13 7.76044)" fill="white"/>
<rect x="9" y="4.76044" width="3.90385" height="0.930122" rx="0.465061" transform="rotate(-45 9 4.76044)" fill="white"/>
<rect x="9" y="2" width="3" height="1" rx="0.5" fill="white"/>
</svg>
