<svg width="20" height="20" viewBox="0 0 20 20" fill="none" xmlns="http://www.w3.org/2000/svg">
<path d="M9.79868 5.08148C10.1412 4.93423 10.5202 4.9936 10.7977 5.20355L16.828 7.79535C17.3353 8.01338 17.5703 8.60145 17.3524 9.10883C17.2134 9.43227 16.9234 9.64349 16.6004 9.69867L10.5946 12.2836C10.3059 12.4078 9.99125 12.3853 9.73325 12.2495C9.71839 12.2439 9.70307 12.2392 9.68833 12.2328L3.60435 9.61859C3.21694 9.45199 2.98897 9.06969 2.99986 8.6723C2.99728 8.28246 3.22372 7.91029 3.60435 7.74652L9.79868 5.08148Z" fill="white"/>
<rect x="15.6858" y="8.68643" width="1" height="5" rx="0.5" fill="white"/>
<path d="M9.68877 13.4062C9.70393 13.4127 9.72036 13.4171 9.73565 13.4228C9.99346 13.5581 10.3077 13.581 10.596 13.4569L14.6858 11.6962V15.8603H14.6253C14.3768 15.1889 13.3796 14.6864 12.1858 14.6864C11.3675 14.6864 10.6419 14.9234 10.1858 15.288C9.73014 14.9231 9.00436 14.6864 8.18584 14.6864C6.99207 14.6864 5.99485 15.1889 5.74639 15.8603H5.68584V11.6864L9.68877 13.4062Z" fill="white"/>
</svg>
